<?xml version="1.0" encoding="UTF-8" standalone="no"?>
<!DOCTYPE svg PUBLIC "-//W3C//DTD SVG 1.1//EN" "http://www.w3.org/Graphics/SVG/1.1/DTD/svg11.dtd">
<!-- Created with Vectornator (http://vectornator.io/) -->
<svg height="100%" stroke-miterlimit="10" style="fill-rule:nonzero;clip-rule:evenodd;stroke-linecap:round;stroke-linejoin:round;" version="1.1" viewBox="0 0 1024 1024" width="100%" xml:space="preserve" xmlns="http://www.w3.org/2000/svg" xmlns:vectornator="http://vectornator.io" xmlns:xlink="http://www.w3.org/1999/xlink">
<defs/>
<g id="Layer-2" vectornator:layerName="Layer 2">
<path d="M80 16C63.621 16 47.2468 22.2532 34.75 34.75C22.2532 47.2468 16 63.621 16 80C16 96.379 22.2532 112.753 34.75 125.25L265.5 356L140 356C104.654 356 76 384.654 76 420C76 455.346 104.654 484 140 484L416.969 484C421.307 484.175 425.625 483.849 429.875 483.156C431.476 482.908 433.066 482.615 434.625 482.25C435.42 482.059 436.213 481.876 437 481.656C439.565 480.95 442.075 480.131 444.5 479.125C444.522 479.116 444.541 479.103 444.562 479.094C447.069 478.051 449.48 476.841 451.812 475.5C452.498 475.111 453.141 474.664 453.812 474.25C455.238 473.359 456.621 472.403 457.969 471.406C458.894 470.733 459.829 470.097 460.719 469.375C462.299 468.071 463.802 466.698 465.25 465.25C466.704 463.818 468.059 462.295 469.375 460.719C469.399 460.69 469.414 460.654 469.438 460.625C473.317 455.962 476.544 450.721 478.969 444.906C478.991 444.855 479.01 444.802 479.031 444.75C480.177 441.982 481.121 439.096 481.875 436.094C482.221 434.76 482.552 433.428 482.812 432.062C483.027 430.889 483.192 429.704 483.344 428.5C483.715 425.71 484 422.892 484 420L484 140C484 54.6667 356 54.6667 356 140L356 265.5L125.25 34.75C112.753 22.2532 96.379 16 80 16Z" fill="#ffffff" fill-rule="evenodd" opacity="1" stroke="#000000" stroke-linecap="round" stroke-linejoin="round" stroke-width="26"/>
<path d="M940 16C923.621 16 907.247 22.2532 894.75 34.75L664 265.5L664 140C664 54.6667 536 54.6667 536 140L536 420C536 422.892 536.285 425.71 536.656 428.5C536.808 429.704 536.973 430.889 537.188 432.062C537.448 433.428 537.779 434.76 538.125 436.094C538.879 439.096 539.823 441.982 540.969 444.75C541.003 444.832 541.028 444.918 541.062 445C543.483 450.779 546.704 455.986 550.562 460.625C550.61 460.683 550.64 460.755 550.688 460.812C551.982 462.357 553.323 463.844 554.75 465.25C556.198 466.698 557.701 468.071 559.281 469.375C560.171 470.097 561.106 470.733 562.031 471.406C563.379 472.403 564.762 473.359 566.188 474.25C566.859 474.664 567.502 475.111 568.188 475.5C570.52 476.841 572.931 478.051 575.438 479.094C575.529 479.132 575.627 479.15 575.719 479.188C578.079 480.157 580.509 480.971 583 481.656C583.787 481.876 584.58 482.059 585.375 482.25C586.934 482.615 588.524 482.908 590.125 483.156C594.375 483.849 598.693 484.175 603.031 484L880 484C915.346 484 944 455.346 944 420C944 384.654 915.346 356 880 356L754.5 356L985.25 125.25C997.747 112.753 1004 96.379 1004 80C1004 63.621 997.747 47.2468 985.25 34.75C972.753 22.2532 956.379 16 940 16Z" fill="#ffffff" fill-rule="evenodd" opacity="1" stroke="#000000" stroke-linecap="round" stroke-linejoin="round" stroke-width="26"/>
<path d="M602.062 535.906C598.049 535.806 594.058 536.202 590.125 536.844C588.524 537.092 586.934 537.385 585.375 537.75C584.58 537.941 583.787 538.124 583 538.344C580.509 539.029 578.079 539.843 575.719 540.812C575.627 540.85 575.529 540.868 575.438 540.906C572.931 541.949 570.52 543.159 568.188 544.5C567.502 544.889 566.859 545.336 566.188 545.75C564.762 546.641 563.379 547.597 562.031 548.594C561.106 549.267 560.171 549.903 559.281 550.625C557.701 551.929 556.198 553.302 554.75 554.75C553.323 556.156 551.982 557.643 550.688 559.188C550.64 559.245 550.61 559.317 550.562 559.375C546.704 564.014 543.483 569.221 541.062 575C541.028 575.082 541.003 575.168 540.969 575.25C539.823 578.018 538.879 580.904 538.125 583.906C537.779 585.24 537.448 586.572 537.188 587.938C536.973 589.111 536.808 590.296 536.656 591.5C536.285 594.29 536 597.108 536 600L536 880C536 965.333 664 965.333 664 880L664 754.5L894.75 985.25C907.247 997.747 923.621 1004 940 1004C956.379 1004 972.753 997.747 985.25 985.25C997.747 972.753 1004 956.379 1004 940C1004 923.621 997.747 907.247 985.25 894.75L754.5 664L880 664C915.346 664 944 635.346 944 600C944 564.654 915.346 536 880 536L603.031 536C602.708 535.987 602.386 535.914 602.062 535.906Z" fill="#ffffff" fill-rule="evenodd" opacity="1" stroke="#000000" stroke-linecap="round" stroke-linejoin="round" stroke-width="26"/>
<path d="M417.938 535.906C417.614 535.914 417.292 535.987 416.969 536L140 536C104.654 536 76 564.654 76 600C76 635.346 104.654 664 140 664L265.5 664L34.75 894.75C22.2532 907.247 16 923.621 16 940C16 956.379 22.2532 972.753 34.75 985.25C47.2468 997.747 63.621 1004 80 1004C96.379 1004 112.753 997.747 125.25 985.25L356 754.5L356 880C356 965.333 484 965.333 484 880L484 600C484 597.108 483.715 594.29 483.344 591.5C483.192 590.296 483.027 589.111 482.812 587.938C482.552 586.572 482.221 585.24 481.875 583.906C481.107 580.848 480.143 577.909 478.969 575.094C478.956 575.064 478.95 575.03 478.938 575C476.502 569.186 473.266 563.941 469.375 559.281C469.351 559.253 469.336 559.216 469.312 559.188C468.018 557.643 466.677 556.156 465.25 554.75C463.802 553.302 462.299 551.929 460.719 550.625C459.829 549.903 458.894 549.267 457.969 548.594C456.621 547.597 455.238 546.641 453.812 545.75C453.141 545.336 452.498 544.889 451.812 544.5C449.46 543.148 447.029 541.924 444.5 540.875C444.43 540.846 444.351 540.841 444.281 540.812C441.921 539.843 439.491 539.029 437 538.344C436.213 538.124 435.42 537.941 434.625 537.75C433.066 537.385 431.476 537.092 429.875 536.844C425.942 536.202 421.951 535.806 417.938 535.906Z" fill="#ffffff" fill-rule="evenodd" opacity="1" stroke="#000000" stroke-linecap="round" stroke-linejoin="round" stroke-width="26"/>
</g>
</svg>
